<svg id="Iconly_Broken_Activity" data-name="Iconly/Broken/Activity" xmlns="http://www.w3.org/2000/svg" width="24" height="24" viewBox="0 0 24 24">
  <g id="Activity" transform="translate(2 2)">
    <path id="Activity-2" data-name="Activity" d="M10.305,20a.741.741,0,0,1-.743-.732.751.751,0,0,1,.743-.741h2.952c2.925,0,4.542-1.6,4.568-4.532V7.522a.729.729,0,1,1,1.459,0v6.473c0,3.7-2.316,6-6.027,6ZM0,13.995v-7.2C0,3.078,2.307.776,6.018.776h6.505a.743.743,0,0,1,.733.741.734.734,0,0,1-.742.733h-6.5c-2.925,0-4.542,1.614-4.542,4.541v7.2c0,2.928,1.617,4.532,4.542,4.532a.75.75,0,0,1,.743.741A.741.741,0,0,1,6.018,20C2.307,20,0,17.7,0,13.995Zm4.648-.608a.741.741,0,0,1-.132-1.032L7.406,8.6a.745.745,0,0,1,1.043-.132l2.713,2.126,2.387-3.043A.733.733,0,0,1,14.7,8.43l-2.828,3.642a.789.789,0,0,1-.5.282.742.742,0,0,1-.539-.158L8.122,10.071,5.683,13.236a.737.737,0,0,1-.592.3A.737.737,0,0,1,4.648,13.387ZM14.8,2.6a2.6,2.6,0,1,1,2.6,2.583A2.585,2.585,0,0,1,14.8,2.6Zm1.476,0A1.122,1.122,0,1,0,17.4,1.481,1.122,1.122,0,0,0,16.279,2.6Z"/>
  </g>
</svg>
